<?xml version="1.0" encoding="UTF-8"?>
<svg id="Layer_1" xmlns="http://www.w3.org/2000/svg" version="1.1" viewBox="0 0 480 480">
  <!-- Generator: Adobe Illustrator 29.0.0, SVG Export Plug-In . SVG Version: 2.1.0 Build 186)  -->
  <defs>
    <style>
      .st0 {
        fill: #fff;
      }
    </style>
  </defs>
  <path class="st0" d="M461.9,114.5c-1.8-9.3-6-18.1-12-25.5-1.2-1.6-2.5-2.9-3.9-4.3-10.8-10.8-25.7-17-41.1-17H78.4c-15.5,0-30.1,6.1-41.1,17-1.4,1.4-2.7,2.8-4,4.4-6,7.4-10.2,16.1-12,25.4-.8,3.7-1.1,7.4-1.1,11.3v229.2c0,8,1.6,15.7,4.8,23.1,2.8,6.6,7,12.8,12.2,18,1.3,1.3,2.6,2.5,4,3.7,10.4,8.6,23.6,13.4,37.1,13.4h326.4c13.6,0,26.8-4.8,37.2-13.5,1.4-1.1,2.7-2.3,4-3.6,5-5,9-10.8,11.9-17.2l.4-.9c3.2-7.2,4.8-15,4.8-23V125.8c0-3.8-.4-7.6-1.1-11.3ZM50.4,104.8c.8-1.2,1.9-2.4,3.2-3.8,6.6-6.6,15.5-10.3,24.8-10.3h326.4c9.4,0,18.3,3.7,24.8,10.3,1.1,1.1,2.2,2.4,3.2,3.7l2.5,3.4-174.2,151.8c-5.4,4.7-12.3,7.3-19.5,7.3s-14-2.6-19.5-7.3L48.1,108.1l2.3-3.3ZM43.4,357.1c0-.6-.1-1.3-.1-2v-224.5l135.2,117.9-133.8,116.7-1.2-8.1ZM422.3,385.6c-5.2,3-11.3,4.6-17.4,4.6H78.4c-6.2,0-12.2-1.6-17.4-4.6l-5.5-3.2,138.3-120.5,15.2,13.2c9.1,7.9,20.7,12.2,32.6,12.2s23.6-4.4,32.7-12.2l15.1-13.2,138.2,120.5-5.5,3.2ZM440,355.1c0,.7,0,1.4-.1,2l-1.2,8.2-133.9-116.7,135.2-118v224.4Z"/>
</svg>