<?xml version="1.0" encoding="UTF-8"?>
<svg id="Layer_2" xmlns="http://www.w3.org/2000/svg" version="1.1" viewBox="0 0 480 480">
  <!-- Generator: Adobe Illustrator 29.0.0, SVG Export Plug-In . SVG Version: 2.1.0 Build 186)  -->
  <defs>
    <style>
      .st0, .st1 {
        fill: #fff;
      }

      .st1 {
        fill-rule: evenodd;
      }
    </style>
  </defs>
  <path class="st1" d="M239.6,361c66.4,0,120.2-53.8,120.2-120.2s-53.8-120.2-120.2-120.2-120.2,53.8-120.2,120.2,53.8,120.2,120.2,120.2ZM239.6,320.9c44.3,0,80.1-35.9,80.1-80.1s-35.9-80.1-80.1-80.1-80.1,35.9-80.1,80.1,35.9,80.1,80.1,80.1Z"/>
  <path class="st0" d="M359.8,100.5c-11.1,0-20,9-20,20s9,20,20,20,20-9,20-20-9-20-20-20Z"/>
  <path class="st1" d="M32.3,86c-13.1,25.7-13.1,59.4-13.1,126.7v56.1c0,67.3,0,101,13.1,126.7,11.5,22.6,29.9,41,52.5,52.5,25.7,13.1,59.4,13.1,126.7,13.1h56.1c67.3,0,101,0,126.7-13.1,22.6-11.5,41-29.9,52.5-52.5,13.1-25.7,13.1-59.4,13.1-126.7v-56.1c0-67.3,0-101-13.1-126.7-11.5-22.6-29.9-41-52.5-52.5-25.7-13.1-59.4-13.1-126.7-13.1h-56.1c-67.3,0-101,0-126.7,13.1-22.6,11.5-41,29.9-52.5,52.5ZM267.6,60.4h-56.1c-34.3,0-57.7,0-75.7,1.5-17.6,1.4-26.6,4-32.8,7.2-15.1,7.7-27.3,19.9-35,35-3.2,6.3-5.8,15.3-7.2,32.8-1.5,18-1.5,41.4-1.5,75.7v56.1c0,34.3,0,57.7,1.5,75.7,1.4,17.6,4,26.6,7.2,32.8,7.7,15.1,19.9,27.3,35,35,6.3,3.2,15.3,5.8,32.8,7.2,18,1.5,41.4,1.5,75.7,1.5h56.1c34.3,0,57.7,0,75.7-1.5,17.6-1.4,26.6-4,32.8-7.2,15.1-7.7,27.3-19.9,35-35,3.2-6.3,5.8-15.3,7.2-32.8,1.5-18,1.5-41.4,1.5-75.7v-56.1c0-34.3,0-57.7-1.5-75.7-1.4-17.6-4-26.6-7.2-32.8-7.7-15.1-19.9-27.3-35-35-6.3-3.2-15.3-5.8-32.8-7.2-18-1.5-41.4-1.5-75.7-1.5Z"/>
</svg>