<?xml version="1.0" encoding="UTF-8"?>
<svg id="Layer_4" xmlns="http://www.w3.org/2000/svg" version="1.1" viewBox="0 0 480 480">
  <!-- Generator: Adobe Illustrator 29.0.0, SVG Export Plug-In . SVG Version: 2.1.0 Build 186)  -->
  <defs>
    <style>
      .st0 {
        fill: #fff;
        fill-rule: evenodd;
      }
    </style>
  </defs>
  <g id="Page-1">
    <g id="Dribbble-Light-Preview">
      <g id="icons">
        <path id="twitter-_x5B__x23_154_x5D_" class="st0" d="M156,429.3c171.2,0,264.8-139.6,264.8-260.7s0-7.9-.3-11.9c18.2-13,33.9-29,46.4-47.4-17,7.4-35,12.3-53.4,14.4,19.4-11.5,34-29.5,40.9-50.7-18.3,10.7-38.3,18.2-59.1,22.3-35.3-36.9-94.2-38.7-131.7-4-24.2,22.4-34.4,55.7-26.9,87.6-74.8-3.7-144.6-38.5-191.8-95.7-24.7,41.9-12.1,95.4,28.8,122.3-14.8-.4-29.3-4.4-42.3-11.5v1.2c0,43.6,31.3,81.2,74.7,89.8-13.7,3.7-28.1,4.2-42,1.6,12.2,37.3,47.1,62.9,86.9,63.7-33,25.5-73.7,39.4-115.6,39.3-7.4,0-14.8-.4-22.2-1.3,42.6,26.9,92.1,41.2,142.7,41.1"/>
      </g>
    </g>
  </g>
</svg>