<svg xmlns="http://www.w3.org/2000/svg" xmlns:xlink="http://www.w3.org/1999/xlink" viewBox="0 0 551 551"><defs><style>.cls-1{fill:url(#linear-gradient);}.cls-2{opacity:0.4;}.cls-3{fill:url(#linear-gradient-2);}.cls-4{fill:url(#linear-gradient-3);}</style><linearGradient id="linear-gradient" x1="551" x2="0" y2="551" gradientUnits="userSpaceOnUse"><stop offset="0" stop-color="#ce922d"/><stop offset="1" stop-color="#6f402e"/></linearGradient><linearGradient id="linear-gradient-2" x1="140.29" y1="270.5" x2="317.03" y2="270.5" gradientUnits="userSpaceOnUse"><stop offset="0" stop-color="#ecb43c"/><stop offset="1" stop-color="#d59d27"/></linearGradient><linearGradient id="linear-gradient-3" x1="342.62" y1="264.85" x2="381.48" y2="264.85" xlink:href="#linear-gradient-2"/></defs><g id="Layer_2" data-name="Layer 2"><g id="Layer_1-2" data-name="Layer 1"><rect class="cls-1" width="551" height="551"/><polygon class="cls-2" points="551 387.65 551 551 290.9 551 143 367.07 142.91 366.96 219 199 249.52 175.37 250 175 343 296 343.49 294.73 370 226 369.88 225.84 345 194 345.55 193.69 379.47 174.34 380.6 175.74 380.6 175.75 551 387.65"/><path class="cls-3" d="M316.81,364.46,249.53,175.38h0a2.62,2.62,0,0,0-2.31-1.44H205.45c-1.36,0-2,.58-2,1.74q-.58,11.9-2.61,16.24L140.49,364.17c-.58,1.93.09,2.9,2,2.9H173c1.93,0,3-.77,3.19-2.32L193,314h67.28L278,365a3,3,0,0,0,2.9,2h34.22Q317.68,367.07,316.81,364.46ZM200.52,285.87q22-67.27,25.52-82.07h.29q3.48,12.18,14.35,45.09t12,37Z"/><path class="cls-4" d="M380.6,175.75h0a18.25,18.25,0,0,0-4.34-7.61q-5.22-5.5-13.92-5.51t-14.21,5.51q-5.52,5.51-5.51,14.21a20.74,20.74,0,0,0,2.93,11.35,16.42,16.42,0,0,0,2.29,2.86q5.22,5.22,14.21,5.22t14.21-5.22q5.22-5.22,5.22-14.21A23.76,23.76,0,0,0,380.6,175.75ZM378,225.84H345.81a2,2,0,0,0-2.32,2.32v136.3a2.31,2.31,0,0,0,2.61,2.61H378a2.05,2.05,0,0,0,2.32-2.32V228.16A2.05,2.05,0,0,0,378,225.84Z"/></g></g></svg>