<svg xmlns="http://www.w3.org/2000/svg" xmlns:xlink="http://www.w3.org/1999/xlink" viewBox="0 0 551 551"><defs><style>.cls-1{fill:url(#linear-gradient);}.cls-2{opacity:0.4;}.cls-3{fill:url(#linear-gradient-2);}.cls-4{fill:url(#linear-gradient-3);}</style><linearGradient id="linear-gradient" x1="551" x2="0" y2="551" gradientUnits="userSpaceOnUse"><stop offset="0" stop-color="#5b1950"/><stop offset="1" stop-color="#37122b"/></linearGradient><linearGradient id="linear-gradient-2" x1="184.99" y1="276.5" x2="221.82" y2="276.5" gradientUnits="userSpaceOnUse"><stop offset="0" stop-color="#cf4ba5"/><stop offset="1" stop-color="#cc3697"/></linearGradient><linearGradient id="linear-gradient-3" x1="254.88" y1="269.97" x2="389.48" y2="269.97" xlink:href="#linear-gradient-2"/></defs><g id="Layer_2" data-name="Layer 2"><g id="Layer_1-2" data-name="Layer 1"><rect class="cls-1" width="551" height="551"/><polygon class="cls-2" points="551 367.35 551 551 331.08 551 188 373.07 187.91 372.96 221 182 221.82 182.9 280 247 280.49 246.93 362 235 388.57 166.43 388.85 165.71 551 367.35"/><path class="cls-3" d="M219.5,179.93H187.6c-1.74,0-2.61.77-2.61,2.32V370.46a2.31,2.31,0,0,0,2.61,2.61h31.9c1.54,0,2.32-.87,2.32-2.61V182.25A2.05,2.05,0,0,0,219.5,179.93Z"/><path class="cls-4" d="M389.44,360.31q-.87-14.79-.87-19.72V165.72a1.54,1.54,0,0,0-1.74-1.74H353.77a1.79,1.79,0,0,0-2,2v65q-6.09-1.74-16.24-1.74-33.79,0-55,17.7-1.9,1.57-3.72,3.32-21.9,21-21.89,53.22,0,35.67,20.44,54.08T329.41,376a132.06,132.06,0,0,0,58.29-13.05A2.15,2.15,0,0,0,389.44,360.31Zm-37.7-14.5Q345.35,349,333.47,349q-17.7,0-29.29-11.6T292.58,302q0-22.62,11.6-34.95t30.74-12.32q10.44,0,16.82,3.19Z"/></g></g></svg>