<svg xmlns="http://www.w3.org/2000/svg" xmlns:xlink="http://www.w3.org/1999/xlink" viewBox="0 0 551 551"><defs><style>.cls-1{opacity:0.4;}.cls-2{fill:url(#linear-gradient);}.cls-3{fill:url(#linear-gradient-2);}.cls-4{fill:url(#linear-gradient-3);}</style><linearGradient id="linear-gradient" x1="551" x2="0" y2="551" gradientUnits="userSpaceOnUse"><stop offset="0" stop-color="#203486"/><stop offset="1" stop-color="#162449"/></linearGradient><linearGradient id="linear-gradient-2" x1="142.99" y1="272.21" x2="278.42" y2="272.21" gradientUnits="userSpaceOnUse"><stop offset="0" stop-color="#7dc6ec"/><stop offset="1" stop-color="#56ade4"/></linearGradient><linearGradient id="linear-gradient-3" x1="300.45" y1="298.6" x2="399.34" y2="298.6" xlink:href="#linear-gradient-2"/></defs><g id="Layer_2" data-name="Layer 2"><g id="Layer_1-2" data-name="Layer 1"><polygon class="cls-1" points="545.01 0 551 0 551 7.45 545.01 0"/><rect class="cls-2" width="551" height="551"/><polygon class="cls-1" points="551 432.46 551 551 291.86 551 145.57 369.08 145.57 369.07 162 195 263 197 265.88 200.15 307 245 307.66 244.89 389.06 231.41 389.3 231.37 389.51 231.63 390.53 232.9 551 432.46"/><path class="cls-3" d="M265.88,200.15a63.24,63.24,0,0,0-6.17-6.82q-18.7-18-58.72-18-33.93,0-56,.58a1.79,1.79,0,0,0-2,2V367c0,1.35.77,2,2.32,2H177.5a2.06,2.06,0,0,0,2.32-2.32V302.37h17.11q35.08,0,58.29-15.95t23.2-48.72Q278.42,216.12,265.88,200.15Zm-35.75,66.4q-12,8.56-31.46,8.56-14.79,0-18.85-.58V203.19h3.62q3,0,7.83-.15t9.72-.14q20,0,30.59,9.28t10.59,26.39Q242.17,258,230.13,266.55Z"/><path class="cls-4" d="M389.63,301.64q-9.72-10.29-33.79-19.57-13.05-5.22-17.11-9.14a12.29,12.29,0,0,1-4.06-9.13q0-5.22,4.79-9T354.39,251q17.69,0,33.93,10.15,2.61,1.74,2.61-1.74V235.38a6.47,6.47,0,0,0-.4-2.48,2.57,2.57,0,0,0-1-1.27l0,0-.42-.2q-12.72-6.18-35.83-6.18-25.23,0-38.86,12.18a43.73,43.73,0,0,0-6.71,7.48,38.55,38.55,0,0,0-6.92,22.68q0,15.66,9.14,25.95t32.33,19.29q12.77,4.94,17.11,9.13a13.79,13.79,0,0,1,4.35,10.3q0,5.81-5.36,9.42t-15.52,3.63q-21.46,0-40.31-13.92a1,1,0,0,0-1.3-.15,1.7,1.7,0,0,0-.73,1.6v27c0,1.55.58,2.51,1.74,2.9Q318.43,372,344,372t40.46-12q14.93-12,14.93-31.75Q399.34,311.94,389.63,301.64Z"/></g></g></svg>