<?xml version="1.0" encoding="UTF-8"?>
<svg xmlns="http://www.w3.org/2000/svg" version="1.1" viewBox="0 0 308.8 304.9">
  <defs>
    <style>
      .cls-1 {
        fill: #0c7caa;
      }

      .cls-2 {
        fill: #fff;
      }

      .cls-3 {
        fill: #02496e;
      }

      .cls-4 {
        fill: #1aa9ce;
      }

      .cls-5 {
        fill: #2fb8d6;
      }

      .cls-6 {
        fill: #0a6e9b;
      }

      .cls-7 {
        fill: #86b725;
      }

      .cls-8 {
        fill: #0492c2;
      }

      .cls-9 {
        fill: #089bc7;
      }
    </style>
  </defs>
  <!-- Generator: Adobe Illustrator 28.7.1, SVG Export Plug-In . SVG Version: 1.2.0 Build 142)  -->
  <g>
    <g id="Layer_2">
      <g>
        <path class="cls-6" d="M254.3,63.4L154.4,9.6h0s-1.3.7-1.3.7l-54.1,29.1-44.5,24v178h0s98.6,53.1,98.6,53.1l1.3.7v-49.2l52.7-28.4,3.3-1.8h0s0,0,0,0l-3.4,1.8-2.7,1.5-50,21.9-1.3-.5v-70.9c-16.7,10.2-37.5,16.2-60.1,16.2s-2.7,0-4,0v-40.2l5.1-46.8,59.1-39v109.9c23.5-14.3,38.6-36.8,38.6-62.1s-3.5-23.6-9.7-33.9l38,20.4,34.4-30.7ZM227.3,217.4l.4.3c0,0,.2-.2.2-.2h-.6Z"/>
        <path class="cls-6" d="M254.3,63.4v178h0s-26.6-23.6-26.6-23.6c0,0,.2-.2.2-.2h-.6c0-.1,0-.1,0-.1l-7.4-6.6-9.5,5.1h0c0,0,9.5-5.2,9.5-5.2v-116.7l34.4-30.7Z"/>
        <path class="cls-4" d="M153,10.3v49.4l-59.1,39-5.1,46.8v40.2c1.3,0,2.7,0,4,0,22.6,0,43.5-6,60.1-16.2v124.9l-98.6-53.1h0V63.4l44.5-24,54.1-29.1Z"/>
        <path class="cls-1" d="M204.4,219.1l-50,26.9-1.3-.7-32.5-17.5h0s-31.6-17-31.6-17v-25.1c1.3,0,2.7,0,4,0,22.6,0,43.5-6,60.1-16.2v70.9l1.3.5,50-21.9Z"/>
        <path class="cls-8" d="M219.9,94.1v116.7l-9.5,5.1-3.4,1.8-2.7,1.5-50,26.9-1.3-.7-32.5-17.5h0s-31.6-17-31.6-17v-25.1c1.3,0,2.7,0,4,0,22.6,0,43.5-6,60.1-16.2,23.5-14.3,38.6-36.8,38.6-62.1s-3.5-23.6-9.7-33.9l38,20.4Z"/>
        <polygon class="cls-5" points="54.4 63.4 88.9 94.1 154.4 58.8 154.4 9.6 54.4 63.4"/>
        <polygon class="cls-9" points="254.3 63.4 219.9 94.1 182 73.7 154.4 58.8 154.4 9.6 154.4 9.6 254.3 63.4"/>
        <polygon class="cls-9" points="154.4 246.1 154.4 295.3 54.4 241.5 54.4 241.5 88.9 210.8 120.2 227.7 153 245.4 154.4 246.1"/>
        <polygon class="cls-3" points="254.3 241.5 154.4 295.3 154.4 246.1 207.1 217.7 210.4 215.9 210.4 215.9 219.9 210.8 227.3 217.4 227.3 217.4 227.7 217.8 254.3 241.5"/>
        <path class="cls-1" d="M196.3,157.9c-20.6,18.3-54.5,25.9-74.7,28.5-20.2,2.6-31.4,17.7-32.8,17.6v-110h0l64.2-34.6,1.3-.7,27.6,14.8c29.5,15.9,35,66,14.4,84.3Z"/>
        <polygon class="cls-2" points="128 127.4 109 113.4 108.6 120 108.2 112.6 92.2 126.3 107 112.1 98.1 112.2 106.8 111.5 91.4 98.2 107.8 110.6 108.2 103.6 109.1 110.6 127 98.7 109.1 111.6 114.5 112 108.9 112.1 128 127.4"/>
        <polygon class="cls-2" points="227.9 208.5 222.9 207.5 222.5 207.4 222.5 207.4 218.4 206.6 215.4 209.2 212.5 211.9 213.5 208.4 214 206.7 214 206.7 214 206.6 214.5 205 211 202.6 207.1 199.8 211.8 201.2 216.2 202.5 218.8 200 219.9 199 222.7 196.3 221.5 199.7 220 204.1 223.8 206.2 227.9 208.5"/>
        <path class="cls-7" d="M207.1,217.7l3.3-1.8h0s-3.3,1.8-3.3,1.8Z"/>
        <polygon class="cls-2" points="204.4 219.1 154.4 246.1 153 245.4 120.2 227.7 120.5 227.8 120.5 227.8 154.4 243.7 204.4 219.1"/>
        <polygon class="cls-2" points="154.4 58.8 153 59.7 91.9 96.5 88.9 145.5 88.9 94.1 88.9 94.1 153 59.5 154.4 58.8"/>
        <polygon class="cls-2" points="54.4 63.4 72.2 76.4 88.9 94.1 54.4 63.4"/>
        <polygon class="cls-2" points="154.4 58.8 151.8 35.2 154.4 9.6 154.4 58.8"/>
      </g>
    </g>
  </g>
</svg>